# xmcd
#
# Track frame offsets:
#	150
#	21077
#	46253
#	63377
#	82256
#	100209
#	125687
#	149991
#	168167
#	187895
#	217119
#	236351
#	281129
#	295773
#	318786
#	335001
#
# Disc length: 4771 seconds
#
# Revision: 0
# Processed by: cddbd v1.5.1PL0 Copyright (c) Steve Scherf et al.
# Submitted via: dBpowerAMP V4.0
#
DISCID=f612a110
DTITLE=Tori Amos - StrangeLittleGirls
DYEAR=1900
DGENRE=
TTITLE0=New Age
TTITLE1=97´ Bonny and Clyde
TTITLE2=Strange Little Girl
TTITLE3=Enjoy the Silence
TTITLE4=Rattlesnakes
TTITLE5=I´m not in Love
TTITLE6=Time
TTITLE7=Heart of Gold
TTITLE8=I don´t like Mondays
TTITLE9=Raining Blood
TTITLE10=Real Men
TTITLE11=Happiness is a warm gun
TTITLE12=Smells like Teen Spirit
TTITLE13=Losing my Religion
TTITLE14=Lovesong
TTITLE15=Cornflake Girl
EXTD=StrangeLittleGirls
EXTT0=
EXTT1=
EXTT2=
EXTT3=
EXTT4=
EXTT5=
EXTT6=
EXTT7=
EXTT8=
EXTT9=
EXTT10=
EXTT11=
EXTT12=
EXTT13=
EXTT14=
EXTT15=
PLAYORDER=
